<svg width="64" height="64" viewBox="-8 -8 80 80" fill="none" xmlns="http://www.w3.org/2000/svg">
<path d="M61.8001 33.0217C61.2518 32.2882 61.2384 31.2796 61.7868 30.533L62.9237 28.948C63.8198 27.7036 64.1408 26.1318 63.7797 24.6386C63.4186 23.1453 62.4288 21.8747 61.0511 21.1543L59.3123 20.2374C58.4831 19.8052 58.0417 18.9144 58.1888 18.0106L58.5098 16.0982C58.764 14.5919 58.3493 13.0463 57.3729 11.8543C56.3832 10.6623 54.9252 9.94187 53.3737 9.87638L51.3942 9.81089C50.4579 9.77159 49.6554 9.15596 49.4012 8.27835L48.8529 6.41834C48.1841 4.15227 46.0307 2.56734 43.6097 2.56734C42.8741 2.56734 42.1385 2.71142 41.4563 2.99959L39.6373 3.75931C38.7946 4.11298 37.7647 3.8903 37.1629 3.22227L35.8387 1.78142C34.8088 0.654932 33.3241 0 31.786 0C30.2077 0 28.7097 0.668031 27.6664 1.83381L26.3824 3.31396C25.7805 3.99509 24.764 4.23086 23.9079 3.8903L22.0755 3.15677C21.4068 2.8948 20.7112 2.75072 20.0024 2.75072C17.5547 2.75072 15.3879 4.36185 14.7459 6.68031L14.2242 8.54032C13.9835 9.41793 13.181 10.0467 12.2581 10.0991L10.2919 10.2169C8.72698 10.3086 7.28245 11.0422 6.31943 12.2472C5.35641 13.4523 4.96853 14.998 5.24941 16.5043L5.61054 18.4036C5.78442 19.3074 5.34304 20.2112 4.52714 20.6566L2.80173 21.5997C1.43745 22.3463 0.461053 23.63 0.126671 25.1232C-0.207711 26.6165 0.126671 28.1883 1.04957 29.4196L2.21322 30.9783C2.7616 31.7118 2.77498 32.7204 2.22659 33.467L1.08969 35.052C0.193547 36.2964 -0.12746 37.8682 0.233673 39.3614C0.594806 40.8547 1.58458 42.1122 2.96223 42.8457L4.70102 43.7626C5.53029 44.1948 5.97167 45.0855 5.82455 45.9894L5.49016 47.9018C5.23603 49.4081 5.65067 50.9537 6.62706 52.1457C7.61684 53.3377 9.07474 54.0581 10.6263 54.1236L12.6058 54.2022C13.5421 54.2415 14.3446 54.8571 14.5987 55.7347L15.1471 57.5948C15.8159 59.8608 17.9693 61.4458 20.3902 61.4458C21.1259 61.4458 21.8615 61.3017 22.5437 61.0135L24.3627 60.2538C25.2053 59.9001 26.2352 60.1228 26.8371 60.7908L28.1613 62.2317C29.1912 63.3582 30.6758 64 32.214 64C33.7923 64 35.2903 63.332 36.3336 62.1662L37.6176 60.686C38.2195 60.0049 39.236 59.7691 40.092 60.1097L41.9245 60.8432C42.5932 61.1052 43.2887 61.2493 43.9976 61.2493C46.4453 61.2493 48.6121 59.6381 49.2541 57.3197L49.7758 55.4597C50.0165 54.5821 50.819 53.9533 51.7419 53.9009L53.7081 53.7962C55.273 53.7045 56.7175 52.9709 57.6806 51.7659C58.6436 50.5608 59.0315 49.0151 58.7506 47.5088L58.3894 45.6095C58.2156 44.7057 58.657 43.8019 59.4728 43.3696L61.1983 42.4265C62.5625 41.6799 63.5389 40.3962 63.8733 38.903C64.2077 37.4097 63.8733 35.8379 62.9504 34.6066L61.8001 33.0217Z" fill="red">
    <animateTransform attributeName="transform" type="rotate" from="0 32 32" to="360 32 32" dur="4s" repeatCount="indefinite"/>
</path>
<path d="M7.53314 32.9063L7.86402 31.6715L13.8618 27.8375C14.5654 27.3888 15.1521 26.9921 15.6219 26.6474C16.0929 26.2981 16.4651 25.9518 16.7385 25.6084C17.0177 25.2616 17.2149 24.8733 17.3301 24.4434C17.4624 23.9494 17.4581 23.4899 17.3171 23.0649C17.1806 22.6411 16.9352 22.2763 16.5809 21.9706C16.2266 21.6649 15.7955 21.444 15.2879 21.308C14.7482 21.1634 14.2471 21.1492 13.7846 21.2655C13.3279 21.3784 12.9365 21.6044 12.6103 21.9434C12.2887 22.2837 12.0563 22.7214 11.9129 23.2565L10.2939 22.8227C10.5144 21.9995 10.8979 21.3277 11.4441 20.8074C11.9904 20.2872 12.6371 19.9408 13.3843 19.7685C14.136 19.5974 14.9212 19.6215 15.7398 19.8409C16.5631 20.0614 17.246 20.4307 17.7885 20.9486C18.3311 21.4665 18.704 22.0689 18.9073 22.7557C19.1105 23.4425 19.1153 24.1472 18.9216 24.8698C18.7832 25.3866 18.554 25.8669 18.2341 26.3106C17.9201 26.7509 17.4535 27.2117 16.8344 27.6928C16.2211 28.1706 15.3961 28.7339 14.3596 29.3826L10.2994 31.9123L10.27 32.0221L16.801 33.772L16.3966 35.2813L7.53314 32.9063ZM23.7611 37.4605C22.7275 37.1835 21.9224 36.6663 21.346 35.9089C20.7708 35.147 20.435 34.1771 20.3389 32.9994C20.2439 31.8171 20.4011 30.4622 20.8104 28.9347C21.2172 27.4163 21.7567 26.1711 22.4289 25.1993C23.1069 24.2241 23.8854 23.5504 24.7645 23.1781C25.6495 22.8025 26.6042 22.752 27.6287 23.0265C28.6531 23.301 29.4524 23.8215 30.0264 24.588C30.6062 25.3512 30.9436 26.324 31.0385 27.5062C31.1393 28.6852 30.9862 30.0339 30.5794 31.5523C30.1701 33.0798 29.6287 34.3318 28.9554 35.3082C28.2832 36.28 27.5075 36.9521 26.6284 37.3244C25.7505 37.6921 24.7947 37.7374 23.7611 37.4605ZM24.1655 35.9512C25.19 36.2257 26.1181 35.945 26.9499 35.1091C27.7817 34.2732 28.4427 32.9405 28.9329 31.1111C29.2589 29.8945 29.4061 28.8237 29.3746 27.8986C29.3476 26.9747 29.1518 26.2238 28.7871 25.6457C28.427 25.0688 27.9085 24.6896 27.2316 24.5083C26.2163 24.2362 25.2886 24.5244 24.4485 25.3728C23.6097 26.2167 22.9458 27.551 22.4568 29.3758C22.1309 30.5924 21.982 31.6603 22.0101 32.5796C22.0383 33.4989 22.2331 34.2447 22.5944 34.817C22.9604 35.3906 23.484 35.7686 24.1655 35.9512ZM31.304 39.2757L31.6348 38.0408L37.6327 34.2069C38.3362 33.7582 38.9229 33.3614 39.3927 33.0167C39.8637 32.6675 40.2359 32.3211 40.5093 31.9777C40.7885 31.631 40.9857 31.2426 41.1009 30.8127C41.2332 30.3188 41.2289 29.8593 41.0879 29.4343C40.9515 29.0105 40.7061 28.6457 40.3517 28.34C39.9974 28.0342 39.5664 27.8134 39.0587 27.6773C38.519 27.5327 38.0179 27.5186 37.5554 27.6348C37.0987 27.7477 36.7073 27.9737 36.3811 28.3128C36.0596 28.6531 35.8271 29.0908 35.6837 29.6259L34.0647 29.1921C34.2853 28.3689 34.6687 27.6971 35.215 27.1768C35.7612 26.6565 36.4079 26.3102 37.1551 26.1379C37.9068 25.9668 38.692 25.9909 39.5107 26.2102C40.3339 26.4308 41.0168 26.8001 41.5594 27.318C42.102 27.8359 42.4749 28.4383 42.6781 29.1251C42.8813 29.8119 42.8861 30.5166 42.6925 31.2392C42.554 31.756 42.3248 32.2363 42.005 32.6799C41.6909 33.1203 41.2243 33.581 40.6052 34.0622C39.9919 34.54 39.1669 35.1033 38.1304 35.752L34.0703 38.2817L34.0409 38.3914L40.5718 40.1414L40.1674 41.6507L31.304 39.2757ZM47.3398 43.7784C46.5349 43.5627 45.8529 43.2084 45.2938 42.7154C44.7347 42.2225 44.3356 41.645 44.0963 40.9828C43.8571 40.3207 43.8147 39.628 43.9693 38.9047L45.6158 39.3459C45.5095 39.9988 45.6567 40.6019 46.0574 41.1554C46.4639 41.7055 47.0262 42.0767 47.7442 42.2691C48.3205 42.4235 48.8689 42.4259 49.3894 42.2761C49.9145 42.1276 50.3682 41.8521 50.7505 41.4497C51.1387 41.0439 51.413 40.5414 51.5735 39.9423C51.7377 39.3294 51.7493 38.7468 51.6081 38.1942C51.4727 37.6384 51.2092 37.1584 50.8174 36.7545C50.4257 36.3505 49.9309 36.0659 49.333 35.9008C48.9043 35.781 48.4452 35.7291 47.9556 35.745C47.4673 35.7563 47.0486 35.8279 46.6995 35.9599L45.1594 35.3413L47.863 28.6541L55.1623 30.61L54.7579 32.1192L48.8855 30.5457L47.2813 34.557L47.3637 34.579C47.7131 34.4276 48.1252 34.3346 48.6001 34.3001C49.0751 34.2656 49.5481 34.3114 50.0191 34.4376C50.879 34.668 51.5899 35.0791 52.1519 35.6709C52.7197 36.2593 53.1007 36.9594 53.295 37.7712C53.4938 38.5843 53.4712 39.4459 53.2274 40.356C52.9872 41.2524 52.5715 41.9989 51.9803 42.5953C51.3949 43.1885 50.6978 43.5948 49.889 43.8144C49.0814 44.0293 48.2317 44.0173 47.3398 43.7784Z" fill="white"/>
</svg>
